<svg width="993" height="215" viewBox="0 0 993 215" fill="none" xmlns="http://www.w3.org/2000/svg">
<path d="M65.4 77.8H47V161H12.8V77.8H0.4V49.4H12.8V46.2C12.8 32.4667 16.7333 22.0667 24.6 15C32.4667 7.79999 44 4.19999 59.2 4.19999C61.7333 4.19999 63.6 4.26666 64.8 4.39999V33.4C58.2667 33 53.6667 33.9333 51 36.2C48.3333 38.4667 47 42.5333 47 48.4V49.4H65.4V77.8ZM98.6703 37.8C92.6703 37.8 87.737 36.0667 83.8703 32.6C80.137 29 78.2703 24.6 78.2703 19.4C78.2703 14.0667 80.137 9.66666 83.8703 6.19999C87.737 2.59999 92.6703 0.799988 98.6703 0.799988C104.537 0.799988 109.337 2.59999 113.07 6.19999C116.937 9.66666 118.87 14.0667 118.87 19.4C118.87 24.6 116.937 29 113.07 32.6C109.337 36.0667 104.537 37.8 98.6703 37.8ZM115.67 49.4V161H81.4703V49.4H115.67ZM208.455 48.2C221.521 48.2 231.921 52.4667 239.655 61C247.521 69.4 251.455 81 251.455 95.8V161H217.455V100.4C217.455 92.9333 215.521 87.1333 211.655 83C207.788 78.8667 202.588 76.8 196.055 76.8C189.521 76.8 184.321 78.8667 180.455 83C176.588 87.1333 174.655 92.9333 174.655 100.4V161H140.455V49.4H174.655V64.2C178.121 59.2667 182.788 55.4 188.655 52.6C194.521 49.6667 201.121 48.2 208.455 48.2ZM268.42 105C268.42 93.5333 270.554 83.4667 274.82 74.8C279.22 66.1333 285.154 59.4667 292.62 54.8C300.087 50.1333 308.42 47.8 317.62 47.8C324.954 47.8 331.62 49.3333 337.62 52.4C343.754 55.4667 348.554 59.6 352.02 64.8V13H386.22V161H352.02V145C348.82 150.333 344.22 154.6 338.22 157.8C332.354 161 325.487 162.6 317.62 162.6C308.42 162.6 300.087 160.267 292.62 155.6C285.154 150.8 279.22 144.067 274.82 135.4C270.554 126.6 268.42 116.467 268.42 105ZM352.02 105.2C352.02 96.6667 349.62 89.9333 344.82 85C340.154 80.0667 334.42 77.6 327.62 77.6C320.82 77.6 315.02 80.0667 310.22 85C305.554 89.8 303.22 96.4667 303.22 105C303.22 113.533 305.554 120.333 310.22 125.4C315.02 130.333 320.82 132.8 327.62 132.8C334.42 132.8 340.154 130.333 344.82 125.4C349.62 120.467 352.02 113.733 352.02 105.2ZM404.163 105C404.163 93.5333 406.296 83.4667 410.563 74.8C414.963 66.1333 420.896 59.4667 428.363 54.8C435.829 50.1333 444.163 47.8 453.363 47.8C461.229 47.8 468.096 49.4 473.963 52.6C479.963 55.8 484.563 60 487.763 65.2V49.4H521.963V161H487.763V145.2C484.429 150.4 479.763 154.6 473.763 157.8C467.896 161 461.029 162.6 453.163 162.6C444.096 162.6 435.829 160.267 428.363 155.6C420.896 150.8 414.963 144.067 410.563 135.4C406.296 126.6 404.163 116.467 404.163 105ZM487.763 105.2C487.763 96.6667 485.363 89.9333 480.563 85C475.896 80.0667 470.163 77.6 463.363 77.6C456.563 77.6 450.763 80.0667 445.963 85C441.296 89.8 438.963 96.4667 438.963 105C438.963 113.533 441.296 120.333 445.963 125.4C450.763 130.333 456.563 132.8 463.363 132.8C470.163 132.8 475.896 130.333 480.563 125.4C485.363 120.467 487.763 113.733 487.763 105.2ZM783.994 162.6C777.994 162.6 773.06 160.867 769.194 157.4C765.46 153.8 763.594 149.4 763.594 144.2C763.594 138.867 765.46 134.4 769.194 130.8C773.06 127.2 777.994 125.4 783.994 125.4C789.86 125.4 794.66 127.2 798.394 130.8C802.26 134.4 804.194 138.867 804.194 144.2C804.194 149.4 802.26 153.8 798.394 157.4C794.66 160.867 789.86 162.6 783.994 162.6ZM841.639 37.8C835.639 37.8 830.706 36.0667 826.839 32.6C823.106 29 821.239 24.6 821.239 19.4C821.239 14.0667 823.106 9.66666 826.839 6.19999C830.706 2.59999 835.639 0.799988 841.639 0.799988C847.506 0.799988 852.306 2.59999 856.039 6.19999C859.906 9.66666 861.839 14.0667 861.839 19.4C861.839 24.6 859.906 29 856.039 32.6C852.306 36.0667 847.506 37.8 841.639 37.8ZM858.639 49.4V161H824.439V49.4H858.639ZM934.223 162.6C923.29 162.6 913.423 160.267 904.623 155.6C895.957 150.933 889.09 144.267 884.023 135.6C879.09 126.933 876.623 116.8 876.623 105.2C876.623 93.7333 879.157 83.6667 884.223 75C889.29 66.2 896.223 59.4667 905.023 54.8C913.823 50.1333 923.69 47.8 934.623 47.8C945.557 47.8 955.423 50.1333 964.223 54.8C973.023 59.4667 979.957 66.2 985.023 75C990.09 83.6667 992.623 93.7333 992.623 105.2C992.623 116.667 990.023 126.8 984.823 135.6C979.757 144.267 972.757 150.933 963.823 155.6C955.023 160.267 945.157 162.6 934.223 162.6ZM934.223 133C940.757 133 946.29 130.6 950.823 125.8C955.49 121 957.823 114.133 957.823 105.2C957.823 96.2667 955.557 89.4 951.023 84.6C946.623 79.8 941.157 77.4 934.623 77.4C927.957 77.4 922.423 79.8 918.023 84.6C913.623 89.2667 911.423 96.1333 911.423 105.2C911.423 114.133 913.557 121 917.823 125.8C922.223 130.6 927.69 133 934.223 133Z" fill="#E5E5E5"/>
<path d="M580.905 65.2C584.238 60 588.838 55.8 594.705 52.6C600.571 49.4 607.438 47.8 615.305 47.8C624.505 47.8 632.838 50.1333 640.305 54.8C647.771 59.4667 653.638 66.1333 657.905 74.8C662.305 83.4667 664.505 93.5333 664.505 105C664.505 116.467 662.305 126.6 657.905 135.4C653.638 144.067 647.771 150.8 640.305 155.6C632.838 160.267 624.505 162.6 615.305 162.6C607.571 162.6 600.705 161 594.705 157.8C588.838 154.6 584.238 150.467 580.905 145.4V214.2H546.705V49.4H580.905V65.2ZM629.705 105C629.705 96.4667 627.305 89.8 622.505 85C617.838 80.0667 612.038 77.6 605.105 77.6C598.305 77.6 592.505 80.0667 587.705 85C583.038 89.9333 580.705 96.6667 580.705 105.2C580.705 113.733 583.038 120.467 587.705 125.4C592.505 130.333 598.305 132.8 605.105 132.8C611.905 132.8 617.705 130.333 622.505 125.4C627.305 120.333 629.705 113.533 629.705 105ZM716.647 68C720.647 61.8667 725.647 57.0667 731.647 53.6C737.647 50 744.314 48.2 751.647 48.2V84.4H742.247C733.714 84.4 727.314 86.2667 723.047 90C718.78 93.6 716.647 100 716.647 109.2V161H682.447V49.4H716.647V68Z" fill="#4ADE80"/>
</svg>
